HIERARCHY
ROOT Hips
{
	OFFSET 0.000000 8.830580 0.000000
	CHANNELS 6 Xposition Yposition Zposition Zrotation Yrotation Xrotation 
	JOINT Spine
	{
		OFFSET 0.000000 0.010000 0.000000
		CHANNELS 3 Zrotation Yrotation Xrotation
		JOINT Spine1
		{
			OFFSET 0.000000 2.459130 0.000000
			CHANNELS 3 Zrotation Yrotation Xrotation
			JOINT Neck
			{
				OFFSET 0.000000 2.484630 0.000000
				CHANNELS 3 Zrotation Yrotation Xrotation
				JOINT Head_virtual
				{
					OFFSET 0.000000 0.000000 0.000000
					CHANNELS 3 Zrotation Yrotation Xrotation
					JOINT Head
					{
						OFFSET 0.000000 0.927525 0.000000
						CHANNELS 3 Zrotation Yrotation Xrotation
						End Site
						{
							OFFSET 0.000000 0.000000 0.000000
						}
					}
				}
				JOINT LeftUpArm_virtual
				{
					OFFSET 0.000000 0.000000 0.000000
					CHANNELS 3 Zrotation Yrotation Xrotation
					JOINT LeftUpArm
					{
						OFFSET 1.248820 0.000000 0.000000
						CHANNELS 3 Zrotation Yrotation Xrotation
						JOINT LeftForeArm
						{
							OFFSET 2.597580 0.000000 0.000000
							CHANNELS 3 Zrotation Yrotation Xrotation
							JOINT LeftHand
							{
								OFFSET 2.455420 0.000000 0.000000
								CHANNELS 3 Zrotation Yrotation Xrotation
								End Site
								{
									OFFSET 0.000000 0.000000 0.000000
								}
							}
						}
					}
				}
				JOINT RightUpArm_virtual
				{
					OFFSET -0.000000 -0.000000 -0.000000
					CHANNELS 3 Zrotation Yrotation Xrotation
					JOINT RightUpArm
					{
						OFFSET -1.248820 -0.000000 -0.000000
						CHANNELS 3 Zrotation Yrotation Xrotation
						JOINT RightForeArm
						{
							OFFSET -2.597580 -0.000000 -0.000000
							CHANNELS 3 Zrotation Yrotation Xrotation
							JOINT RightHand
							{
								OFFSET -2.455420 -0.000000 -0.000000
								CHANNELS 3 Zrotation Yrotation Xrotation
								End Site
								{
									OFFSET 0.000000 0.000000 0.000000
								}
							}
						}
					}
				}
			}
		}
	}
	JOINT LeftUpLeg
	{
		OFFSET 1.271939 0.000000 0.000000
		CHANNELS 3 Zrotation Yrotation Xrotation
		JOINT LeftLowLeg
		{
			OFFSET 0.000000 -4.342910 0.000000
			CHANNELS 3 Zrotation Yrotation Xrotation
			JOINT LeftFoot
			{
				OFFSET 0.000000 -4.487670 0.000000
				CHANNELS 3 Zrotation Yrotation Xrotation
				JOINT LeftToeBase
				{
					OFFSET 0.000000 0.000000 1.515070
					CHANNELS 3 Zrotation Yrotation Xrotation
					End Site
					{
						OFFSET 0.000000 0.000000 0.000000
					}
				}
			}
		}
	}
	JOINT RightUpLeg
	{
		OFFSET -1.271939 0.000000 0.000000
		CHANNELS 3 Zrotation Yrotation Xrotation
		JOINT RightLowLeg
		{
			OFFSET 0.000000 -4.342910 0.000000
			CHANNELS 3 Zrotation Yrotation Xrotation
			JOINT RightFoot
			{
				OFFSET 0.000000 -4.487670 0.000000
				CHANNELS 3 Zrotation Yrotation Xrotation
				JOINT RightToeBase
				{
					OFFSET 0.000000 0.000000 1.515070
					CHANNELS 3 Zrotation Yrotation Xrotation
					End Site
					{
						OFFSET 0.000000 0.000000 0.000000
					}
				}
			}
		}
	}
}
MOTION
Frames: 8
Frame Time: 0.041667
-14.689904 8.953185 39.757282 178.348365 1.452692 -176.789903 2.833729 0.001593 -18.440901 -6.155095 3.848089 11.949637 0.000000 0.000000 0.000000 12.634714 3.117133 10.235913 -7.548257 -6.517508 -83.105002 -26.856199 3.430480 4.066986 -45.289799 -4.662850 26.295700 0.000000 -19.231001 0.000000 4.285820 16.117701 -8.658800 31.265800 -6.722600 -1.497986 47.088902 -1.536440 19.745701 0.000000 21.858601 0.000000 5.966840 -9.781210 -16.714600 -4.358657 -11.231018 -4.085446 0.000000 0.000000 12.729600 -7.562215 10.106936 -1.758496 0.000000 0.000000 -23.800670 2.991742 19.543668 -5.672353 0.000000 0.000000 18.139400 24.697211 -7.565722 -9.838388 0.000000 0.000000 -19.574330 
-14.688956 8.952536 39.753246 178.338948 1.536665 -176.690983 2.836330 0.034530 -18.598903 -6.170686 3.888880 11.992222 0.000000 0.000000 0.000000 12.625292 3.137412 10.147576 -7.480082 -6.486592 -83.054086 -26.841999 3.359610 3.885986 -45.368599 -4.572490 26.257000 0.000000 -18.995600 0.000000 4.090770 16.276899 -8.765850 31.251400 -6.675660 -1.498993 47.131699 -1.465360 19.726400 0.000000 21.682899 0.000000 5.770060 -9.494030 -15.927700 -4.362181 -11.235037 -4.163046 0.000000 0.000000 12.752600 -7.571376 10.198317 -1.810007 0.000000 0.000000 -23.705580 2.949218 19.474629 -5.779914 0.000000 0.000000 18.173000 24.662471 -7.440946 -9.808404 0.000000 0.000000 -19.586390 
-14.687721 8.951538 39.749976 178.344438 1.596902 -176.710925 2.841810 0.057918 -18.616110 -6.180210 3.903269 11.994434 0.000000 0.000000 0.000000 12.604566 3.170908 10.170384 -7.404210 -6.481857 -83.001054 -26.871700 3.361630 3.960999 -45.362301 -4.701120 26.077499 0.000000 -18.886700 0.000000 4.033570 16.398300 -8.921490 31.255899 -6.613800 -1.490997 47.128899 -1.414000 19.787201 0.000000 21.576599 0.000000 5.793410 -9.646170 -15.717500 -4.365515 -11.186137 -4.142767 0.000000 0.000000 12.805600 -7.566759 10.220389 -1.866629 0.000000 0.000000 -23.684880 2.969125 19.488961 -5.773964 0.000000 0.000000 18.231899 24.642124 -7.392427 -9.820223 0.000000 0.000000 -19.577260 
-14.686349 8.951220 39.744357 178.358081 1.663763 -176.702184 2.868341 0.099665 -18.727729 -6.228765 3.923392 12.058484 0.000000 0.000000 0.000000 12.659924 3.150358 10.247239 -7.394410 -6.454741 -82.931025 -26.883900 3.362110 3.962006 -45.344299 -4.738890 25.967300 0.000000 -18.914700 0.000000 4.170970 16.350300 -8.192710 31.250999 -6.567740 -1.470001 47.149899 -1.390140 19.837799 0.000000 21.545700 0.000000 5.745020 -9.691370 -15.528300 -4.358186 -11.129019 -4.117703 0.000000 0.000000 12.823300 -7.560332 10.243424 -1.910360 0.000000 0.000000 -23.658400 2.996922 19.557652 -5.740729 0.000000 0.000000 18.211399 24.592728 -7.428894 -9.813075 0.000000 0.000000 -19.589030 
-14.685042 8.951268 39.738200 178.367283 1.738592 -176.700123 2.910498 0.166774 -18.863982 -6.324593 3.950230 12.168049 0.000000 0.000000 0.000000 12.744161 3.122305 10.346623 -7.430306 -6.404000 -82.839522 -26.869600 3.358060 3.938995 -45.299400 -4.739940 25.879000 0.000000 -19.074400 0.000000 4.308720 16.248199 -7.925520 31.244801 -6.530840 -1.453003 47.206100 -1.358120 19.881800 0.000000 21.510900 0.000000 5.658560 -9.584850 -15.221300 -4.357619 -11.117016 -4.068488 0.000000 0.000000 12.818600 -7.545377 10.308268 -1.947853 0.000000 0.000000 -23.603470 3.017929 19.550974 -5.703009 0.000000 0.000000 18.198000 24.573776 -7.364452 -9.789540 0.000000 0.000000 -19.549790 
-14.683982 8.951138 39.732043 178.377766 1.763324 -176.739740 2.975125 0.265010 -18.894609 -6.483959 3.938849 12.167378 0.000000 0.000000 0.000000 12.805414 3.123695 10.485530 -7.398030 -6.371466 -82.777514 -26.802601 3.352560 3.914001 -45.284000 -4.676960 25.756100 0.000000 -19.203100 0.000000 4.379880 16.057800 -7.925560 31.349199 -6.600740 -1.431000 47.139400 -1.305150 19.971100 0.000000 21.672199 0.000000 5.768080 -10.004800 -15.133400 -4.358939 -11.060681 -3.975584 0.000000 0.000000 12.796700 -7.526568 10.288873 -1.965416 0.000000 0.000000 -23.585010 3.060760 19.526199 -5.590111 0.000000 0.000000 18.133801 24.529929 -7.358771 -9.766216 0.000000 0.000000 -19.585420 
-14.683020 8.951031 39.726215 178.373878 1.821906 -176.829160 2.999017 0.297774 -18.909065 -6.553324 3.944549 12.244454 0.000000 0.000000 0.000000 12.818027 3.134875 10.583976 -7.381887 -6.364312 -82.718124 -26.811399 3.418800 3.888000 -45.261700 -4.708990 25.355600 0.000000 -19.352301 0.000000 4.482250 15.842000 -6.980700 31.345800 -6.592860 -1.429993 47.133400 -1.265010 20.130301 0.000000 21.788900 0.000000 5.711100 -10.037300 -15.310100 -4.389840 -11.057122 -3.841098 0.000000 0.000000 12.797400 -7.526386 10.350363 -1.994163 0.000000 0.000000 -23.541420 3.100507 19.565036 -5.473353 0.000000 0.000000 18.156300 24.533194 -7.331408 -9.779426 0.000000 0.000000 -19.556260 
-14.681000 8.950821 39.719834 178.371199 1.882619 -176.913794 2.977731 0.299974 -18.897468 -6.559117 3.967321 12.265548 0.000000 0.000000 0.000000 12.828451 3.147014 10.721722 -7.345019 -6.380025 -82.710531 -26.829201 3.477600 3.885010 -45.237598 -4.687700 24.933800 0.000000 -19.577999 0.000000 4.798590 15.549500 -6.554450 31.248199 -6.627830 -1.432007 47.226501 -1.291070 20.180000 0.000000 21.925100 0.000000 5.439610 -9.463430 -14.682300 -4.408296 -10.969594 -3.704204 0.000000 0.000000 12.786200 -7.528046 10.329451 -2.014258 0.000000 0.000000 -23.517600 3.146945 19.603461 -5.378397 0.000000 0.000000 18.219200 24.502116 -7.318829 -9.778441 0.000000 0.000000 -19.650360 
